# xmcd CD database file
#
# Track frame offsets:
#	150
#	21065
#	45547
#	62657
#	81054
#	97315
#	116355
#	136787
#	157950
#	180370
#	200815
#	219217
#	239945
#	266010
#	291710
#	306295
#
# Disc length: 4349 seconds
#
# Revision: 0
# Processed by: cddbd v1.5.2PL0 Copyright (c) Steve Scherf et al.
# Submitted via: Kat CD Ripper 
#
DISCID=ea10fb10
DTITLE=Various Artist - KKSF Volume 10
DYEAR=1999
DGENRE=Jazz
TTITLE0=Sunland
TTITLE1=Winelight
TTITLE2=Forever Forever
TTITLE3=Oye Coma Va
TTITLE4=Baby G
TTITLE5=So Good
TTITLE6=Affirmation
TTITLE7=After The Rain
TTITLE8=Get Here
TTITLE9=Pleasure Seeker
TTITLE10=Shelbi
TTITLE11=Notorious
TTITLE12=Romance Dance
TTITLE13=Wait A Little While
TTITLE14=Cast Your Fate To The Wind
TTITLE15=Sweetest Taboo
EXTD=YEAR: 1999
EXTT0=
EXTT1=
EXTT2=
EXTT3=
EXTT4=
EXTT5=
EXTT6=
EXTT7=
EXTT8=
EXTT9=
EXTT10=
EXTT11=
EXTT12=
EXTT13=
EXTT14=
EXTT15=
PLAYORDER=
